<svg xmlns="http://www.w3.org/2000/svg" xmlns:xlink="http://www.w3.org/1999/xlink" viewBox="0 0 836.07 137.7"><defs><style>.cls-1{font-size:110.45px;fill:#231f20;font-family:FuturaPT-Bold, Futura PT;font-weight:700;}.cls-2{letter-spacing:-0.01em;}.cls-3{fill:url(#linear-gradient);}.cls-4{fill:url(#linear-gradient-2);}.cls-5{fill:#fff;}</style><linearGradient id="linear-gradient" x1="249.38" y1="61.95" x2="350.85" y2="61.95" gradientUnits="userSpaceOnUse"><stop offset="0" stop-color="#f7941d"/><stop offset="1" stop-color="#f15a29"/></linearGradient><linearGradient id="linear-gradient-2" x1="320.77" y1="15.04" x2="350.85" y2="15.04" xlink:href="#linear-gradient"/></defs><g id="Layer_2" data-name="Layer 2"><g id="Layer_1-2" data-name="Layer 1"><text class="cls-1" transform="translate(0 108.98)"><tspan xml:space="preserve">NOT     C</tspan><tspan class="cls-2" x="424.77" y="0">O</tspan><tspan x="513.47" y="0">MMIT</tspan></text><path class="cls-3" d="M340.12,123.9h-80a10.76,10.76,0,0,1-10.73-10.73V10.74A10.77,10.77,0,0,1,260.11,0h60.66l30.08,30.63v82.54A10.76,10.76,0,0,1,340.12,123.9Z"/><path class="cls-4" d="M320.77,0V19.35A10.73,10.73,0,0,0,331.5,30.09h19.35"/><rect class="cls-5" x="276.5" y="40" width="55.16" height="12.83" rx="5.63"/><rect class="cls-5" x="266.56" y="63.89" width="50.97" height="12.83" rx="6.13"/><rect class="cls-5" x="276.5" y="87.71" width="55.16" height="12.83" rx="5.5"/></g></g></svg>